<svg width="195" height="48" viewBox="0 0 195 48" fill="none" xmlns="http://www.w3.org/2000/svg">
<g clip-path="url(#clip0_39027_10818)">
<g clip-path="url(#clip1_39027_10818)">
<mask id="mask0_39027_10818" style="mask-type:luminance" maskUnits="userSpaceOnUse" x="0" y="0" width="195" height="48">
<path d="M195 0.0273438H0V47.9739H195V0.0273438Z" fill="white"/>
</mask>
<g mask="url(#mask0_39027_10818)">
<path d="M106.623 30.2125C104.212 29.3256 102.948 27.8341 102.47 25.2926C101.798 21.6693 103.731 18.2407 106.985 17.3299C108.611 16.8606 110.628 16.9999 112.143 17.7158C114.219 18.6545 114.414 19.0163 113.404 19.9549L112.589 20.7305L111.185 20.1221C109.474 19.4022 108.83 19.4021 107.315 20.0663C104.566 21.3112 104.177 25.5391 106.67 27.2851C108.042 28.2516 109.614 28.3074 111.296 27.4523L112.696 26.7324L113.452 27.6193C113.873 28.1165 114.235 28.6136 114.235 28.7249C114.235 28.8363 113.647 29.2499 112.947 29.6636C111.375 30.5744 108.293 30.8529 106.611 30.2165L106.623 30.2125ZM71.4074 22.9977C70.8466 21.6971 70.3136 20.7585 70.2023 20.8698C70.0034 21.0647 68.2653 25.0181 68.2653 25.2368C68.2653 25.2926 69.192 25.3483 70.3415 25.3483H72.4137L71.4074 22.9977ZM63.2221 29.7154C63.3891 29.3533 64.6778 26.4818 66.1096 23.272L68.7466 17.4651L70.2579 17.3816L71.8011 17.2981L74.6608 23.63C76.2319 27.1142 77.5205 30.0455 77.5205 30.1529C77.5205 30.2364 76.8762 30.3198 76.1165 30.3198C74.7125 30.3198 74.6887 30.2921 74.0961 29.075L73.4796 27.8301H67.1437L66.5272 29.075C66.1162 29.905 65.4149 30.3198 64.4232 30.3198C62.9954 30.3198 62.9675 30.2921 63.2181 29.7114L63.2221 29.7154ZM85.0933 23.825V17.3259H87.8974V27.8301H94.627V30.3198H85.0933V23.821V23.825ZM122.102 23.825V17.3259H124.906V22.5801H130.793V17.3259H133.597V30.3198H130.793V25.0659H124.906V30.3198H122.102V23.821V23.825ZM142.291 23.825V17.3259H152.103V19.8158H144.817V22.5801H151.825V25.0659H144.813V27.5556H152.103V30.3198H142.291V23.821V23.825ZM160.515 23.825V17.3259H163.486L165.419 19.9549C166.457 21.3908 167.356 22.5801 167.384 22.5801C167.412 22.5801 168.283 21.3908 169.349 19.9549L171.254 17.3259H174.253V30.3198H171.731L171.676 25.8693L171.592 21.4465L169.627 24.0754C168.561 25.5113 167.523 26.7284 167.328 26.7284C167.161 26.7284 166.151 25.5392 165.085 24.0754L163.18 21.4465L163.097 25.8733L163.041 30.3238H160.519V23.825H160.515ZM187.151 27.6391V24.9824L184.908 21.5539C183.647 19.6727 182.581 17.9583 182.47 17.7396C182.359 17.4095 182.637 17.3259 183.898 17.3259C185.636 17.3259 185.33 17.0237 187.796 21.0845L188.579 22.3851L190.178 19.8714L191.777 17.3259H193.404C194.271 17.3259 195.003 17.4096 195.003 17.5209C195.003 17.6323 193.881 19.3465 192.477 21.367L189.955 25.0181V30.3238H187.151V27.6431V27.6391Z" fill="#201E2E"/>
<path d="M47.9426 23.6845H39.8686C39.8686 23.7879 39.8686 23.8953 39.8686 23.9987C39.8686 24.8975 39.7931 25.7805 39.6499 26.6476C39.109 29.8851 37.5817 32.8721 35.2112 35.2386C32.2083 38.2414 28.2151 39.896 23.9673 39.896C19.7195 39.896 15.7263 38.2414 12.7234 35.2386C11.0013 33.5164 9.72057 31.4681 8.94499 29.2328H11.1723C13.2365 34.2681 18.1843 37.8159 23.9633 37.8159C31.5958 37.8159 37.7806 31.6272 37.7806 23.9987C37.7806 23.247 37.7209 22.5112 37.6056 21.7913H42.6408C42.5215 20.781 42.3266 19.7907 42.0522 18.8242C41.1891 15.7855 39.5584 12.9974 37.2635 10.7025C33.7118 7.15073 28.9907 5.19388 23.9673 5.19388C18.944 5.19388 14.2229 7.15073 10.6711 10.7025C7.81145 13.5622 5.98984 17.1776 5.38529 21.0952H3.14208C4.56199 10.8576 13.3439 2.97454 23.9713 2.97454C33.7993 2.97454 42.0482 9.7161 44.3551 18.8242C44.5977 19.7867 44.7767 20.777 44.8801 21.7913H47.8432C47.7517 20.785 47.5966 19.7946 47.3858 18.8242C45.0193 8.07346 35.4379 0.0273438 23.9713 0.0273438C11.7172 0.0273438 1.60684 9.22689 0.175002 21.0992C0.0596598 22.0498 0 23.0202 0 24.0026C0 24.0225 0 24.0464 0 24.0663H8.07396C8.07396 24.0464 8.07396 24.0225 8.07396 24.0026C8.07396 23.0202 8.16146 22.0498 8.33646 21.0992C8.91317 17.9571 10.4246 15.0656 12.7314 12.7588C15.7343 9.75587 19.7275 8.1013 23.9753 8.1013C28.2231 8.1013 32.2163 9.75587 35.2192 12.7588C36.9572 14.4969 38.2459 16.569 39.0215 18.8282H36.7942C34.7459 13.761 29.7782 10.1854 23.9753 10.1854C17.3411 10.1854 11.7967 14.8628 10.4603 21.1032C10.2615 22.0379 10.1541 23.0083 10.1541 24.0066C10.1541 24.0265 10.1541 24.0504 10.1541 24.0703C10.1541 24.822 10.2217 25.5578 10.341 26.2777H5.30574C5.42506 27.2879 5.62791 28.2783 5.90632 29.2448C6.77337 32.2596 8.39612 35.0238 10.6791 37.3028C14.2308 40.8545 18.9519 42.8114 23.9753 42.8114C28.9986 42.8114 33.7197 40.8545 37.2715 37.3028C40.1908 34.3835 42.0323 30.6726 42.5931 26.6555H44.8323C43.5318 37.0164 34.6862 45.0307 23.9753 45.0307C14.1712 45.0307 5.93416 38.321 3.60743 29.2448C3.36083 28.2822 3.17788 27.2919 3.07049 26.2777H0.107388C0.202843 27.2879 0.357959 28.2743 0.576711 29.2448C2.9631 39.9676 12.5325 47.9819 23.9753 47.9819C36.3209 47.9819 46.4829 38.6511 47.8034 26.6595C47.8989 25.7885 47.9466 24.9055 47.9466 24.0106C47.9466 23.9072 47.9466 23.7998 47.9466 23.6964L47.9426 23.6845ZM13.2127 23.9987C13.2127 22.9924 13.3519 22.018 13.6104 21.0952C14.8792 16.5651 19.0354 13.24 23.9713 13.24C28.0361 13.24 31.5759 15.4952 33.4055 18.8242C33.9106 19.739 34.2845 20.7373 34.5032 21.7913C34.6504 22.5032 34.7299 23.243 34.7299 23.9987C34.7299 29.9408 29.9134 34.7573 23.9713 34.7573C19.9303 34.7573 16.4104 32.53 14.5729 29.2368C14.0638 28.322 13.682 27.3237 13.4553 26.2697C13.3002 25.5578 13.2206 24.818 13.2166 24.0623V23.9987H13.2127Z" fill="#201E2E"/>
</g>
</g>
</g>
<defs>
<clipPath id="clip0_39027_10818">
<rect width="195" height="48" fill="white"/>
</clipPath>
<clipPath id="clip1_39027_10818">
<rect width="195" height="48" fill="white"/>
</clipPath>
</defs>
</svg>
